<svg width="736" height="887" viewBox="0 0 736 887" xmlns="http://www.w3.org/2000/svg" xmlns:xlink="http://www.w3.org/1999/xlink" style="background:#fff"><title>Jenkins CD on Container Engine Architecture Copy</title><defs><path d="M238.625 175H2.875C1.287 175 0 174.13 0 173.056V1.944C0 .87 1.287 0 2.875 0h235.75c1.588 0 2.875.87 2.875 1.944v171.112c0 1.074-1.287 1.944-2.875 1.944" id="a"/><mask id="o" x="0" y="0" width="241.5" height="175" fill="#fff"><use xlink:href="#a"/></mask><rect id="b" width="169" height="32" rx="2"/><mask id="p" x="0" y="0" width="169" height="32" fill="#fff"><use xlink:href="#b"/></mask><rect id="c" width="169" height="32" rx="2"/><mask id="q" x="0" y="0" width="169" height="32" fill="#fff"><use xlink:href="#c"/></mask><rect id="d" width="169" height="32" rx="2"/><mask id="r" x="0" y="0" width="169" height="32" fill="#fff"><use xlink:href="#d"/></mask><rect id="e" width="136" height="48" rx="2"/><mask id="s" x="0" y="0" width="136" height="48" fill="#fff"><use xlink:href="#e"/></mask><linearGradient x1="50%" y1="0%" x2="50%" y2="99.845%" id="t"><stop stop-color="#4387FD" offset="0%"/><stop stop-color="#4683EA" offset="100%"/></linearGradient><path d="M.337 14.311a2.72 2.72 0 0 1 0-2.622l5.742-10.37C6.53.508 7.36.008 8.258.008h11.484c.899 0 1.73.5 2.179 1.311l5.742 10.37a2.72 2.72 0 0 1 0 2.622l-5.742 10.37c-.45.811-1.28 1.311-2.179 1.311H8.258c-.899 0-1.73-.5-2.179-1.311L.337 14.311z" id="u"/><path d="M239.125 175H3.375C1.787 175 .5 174.13.5 173.056V1.944C.5.87 1.787 0 3.375 0h235.75C240.713 0 242 .87 242 1.944v171.112c0 1.074-1.287 1.944-2.875 1.944" id="f"/><mask id="w" x="0" y="0" width="241.5" height="175" fill="#fff"><use xlink:href="#f"/></mask><rect id="g" width="169" height="32" rx="2"/><mask id="x" x="0" y="0" width="169" height="32" fill="#fff"><use xlink:href="#g"/></mask><path d="M411.006 175H4.952C2.216 175 0 174.13 0 173.056V1.944C0 .87 2.216 0 4.952 0h406.054c2.736 0 4.951.87 4.951 1.944v171.112c0 1.074-2.215 1.944-4.951 1.944" id="h"/><mask id="y" x="0" y="0" width="415.957" height="175" fill="#fff"><use xlink:href="#h"/></mask><rect id="i" width="169" height="32" rx="2"/><mask id="z" x="0" y="0" width="169" height="32" fill="#fff"><use xlink:href="#i"/></mask><rect id="j" width="169" height="32" rx="2"/><mask id="A" x="0" y="0" width="169" height="32" fill="#fff"><use xlink:href="#j"/></mask><rect id="k" width="169" height="32" rx="2"/><mask id="B" x="0" y="0" width="169" height="32" fill="#fff"><use xlink:href="#k"/></mask><rect id="l" width="169" height="32" rx="2"/><mask id="C" x="0" y="0" width="169" height="32" fill="#fff"><use xlink:href="#l"/></mask><rect id="m" width="169" height="32" rx="2"/><mask id="D" x="0" y="0" width="169" height="32" fill="#fff"><use xlink:href="#m"/></mask><rect id="n" width="169" height="32" rx="2"/><mask id="E" x="0" y="0" width="169" height="32" fill="#fff"><use xlink:href="#n"/></mask></defs><g fill="none" fill-rule="evenodd"><path d="M224.5 117H152" stroke="#616161"/><path fill="#616161" d="M221.786 113.696l-.546.586 2.89 2.685-2.89 2.686.546.586 3.518-3.272z"/><path d="M451.5 117H379" stroke="#616161"/><path fill="#616161" d="M448.786 113.696l-.546.586 2.89 2.685-2.89 2.686.546.586 3.518-3.272z"/><g transform="translate(129 224)"><use stroke="#616161" mask="url(#o)" stroke-width="2" stroke-dasharray="2.5" xlink:href="#a"/><path d="M30.19 163c-1.21 0-2.19-.641-2.19-1.433V35.433c0-.792.98-1.433 2.19-1.433h179.62c1.21 0 2.19.641 2.19 1.433v126.134c0 .792-.98 1.433-2.19 1.433H30.19z" stroke="#E0E0E0" fill="#E1F5FE"/><text font-family="Roboto-Medium, Roboto" font-size="14" font-weight="400" letter-spacing="-.143" fill="#000"><tspan x="58" y="58">Kubernetes Engine</tspan></text><text font-family="Roboto-Medium, Roboto" font-size="14" font-weight="400" letter-spacing="-.143" fill="#000"><tspan x="70" y="22">Dev Environment</tspan></text><g transform="translate(35 123)"><use stroke="#E0E0E0" mask="url(#p)" stroke-width="2" fill="#FFF" xlink:href="#b"/><text font-family="Roboto-Regular, Roboto" font-size="12" fill="#212121"><tspan x="27.418" y="21">Frontend Deployment</tspan></text></g><g transform="translate(35 70)"><use stroke="#E0E0E0" mask="url(#q)" stroke-width="2" fill="#FFF" xlink:href="#c"/><text font-family="Roboto-Regular, Roboto" font-size="12" fill="#212121"><tspan x="28.159" y="21">Backend Deployment</tspan></text></g><path d="M118 118.5v-11.011" stroke="#616161"/><path fill="#616161" d="M121.303 115.786l-.586-.546-2.685 2.89-2.686-2.89-.586.546 3.272 3.518zm0-6.029l-.585.546-2.686-2.89-2.685 2.89-.587-.545 3.272-3.519z"/></g><path fill="#616161" d="M158.786 358l-.547.586 2.89 2.685-2.89 2.686.547.586 3.518-3.272z"/><path d="M231.19 138c-1.21 0-2.19-.363-2.19-.811V65.81c0-.448.98-.811 2.19-.811h179.62c1.21 0 2.19.363 2.19.811v71.378c0 .448-.98.811-2.19.811H231.19z" stroke="#E0E0E0" fill="#E1F5FE"/><text font-family="Roboto-Medium, Roboto" font-size="14" font-weight="400" letter-spacing="-.143" fill="#000" transform="translate(229 65)"><tspan x="36" y="21">Dev Tools</tspan></text><g transform="translate(237 100)"><use stroke="#E0E0E0" mask="url(#r)" stroke-width="2" fill="#FFF" xlink:href="#d"/><text font-family="Roboto-Regular, Roboto" font-size="12" fill="#212121"><tspan x="40.695" y="21">Code Repository</tspan></text></g><path d="M448.19 341c-1.21 0-2.19-.363-2.19-.811V268.81c0-.448.98-.811 2.19-.811h179.62c1.21 0 2.19.363 2.19.811v71.378c0 .448-.98.811-2.19.811H448.19z" fill="#E1F5FE" stroke="#E0E0E0"/><path fill="#616161" d="M538.043 297.546l-.586-.546-2.685 2.89-2.686-2.89-.586.546 3.272 3.518z"/><path d="M318.429 859c-.79 0-1.429-.443-1.429-.989V770.99c0-.546.64-.989 1.429-.989H435.57c.79 0 1.429.443 1.429.989v87.022c0 .546-.64.989-1.429.989H318.43z" stroke="#FAFAFA" fill="#FEF6E0"/><path d="M327.034 852.5c-.296 0-.538-.673-.538-1.5v-44c0-.827.242-1.5.538-1.5h45.924c.297 0 .538.673.538 1.5v44c0 .827-.241 1.5-.538 1.5h-45.924zm54 0c-.296 0-.538-.673-.538-1.5v-44c0-.827.242-1.5.538-1.5h45.924c.297 0 .538.673.538 1.5v44c0 .827-.241 1.5-.538 1.5h-45.924z" stroke="#E0E0E0" fill="#FFF"/><path d="M361.5 837.25a2.758 2.758 0 0 0 2.75-2.75v-13.75a2.758 2.758 0 0 0-2.75-2.75h-22a2.758 2.758 0 0 0-2.75 2.75v13.75a2.758 2.758 0 0 0 2.75 2.75H334V840h33v-2.75h-5.5zm-22-16.5h22v13.75h-22v-13.75zm70.071-4.75H397.43c-1.336 0-2.429 1.105-2.429 2.455v22.09c0 1.35 1.093 2.455 2.429 2.455h12.142c1.336 0 2.429-1.105 2.429-2.455v-22.09c0-1.35-1.093-2.455-2.429-2.455zm-12.142 22.09v-17.18h12.142v17.18H397.43z" fill="#616161"/><g transform="translate(310 673)"><use stroke="#E0E0E0" mask="url(#s)" stroke-width="2" fill="#FFF" xlink:href="#e"/><text font-family="Roboto-Regular, Roboto" font-size="12" fill="#000"><tspan x="50.307" y="22">Google Load </tspan> <tspan x="50.307" y="36">Balancer</tspan></text></g><g transform="translate(325 684)"><path d="M6.08 24.681L.336 14.311a2.72 2.72 0 0 1 0-2.622l5.742-10.37C6.53.508 7.36.008 8.258.008h11.484c.899 0 1.73.5 2.179 1.311l5.742 10.37a2.72 2.72 0 0 1 0 2.622l-5.742 10.37c-.45.811-1.28 1.311-2.179 1.311H8.258c-.899 0-1.73-.5-2.179-1.311z" fill="url(#t)"/><mask id="v" fill="#fff"><use xlink:href="#u"/></mask><use fill="#4285F4" xlink:href="#u"/><path fill="#3B77DB" mask="url(#v)" d="M17.244 8.035l-5.34 1.848-1.186.76 1.76 1.835-2.525.237.055 2.47-1.33 1.863 8.647 9.016 4.113.164 4.946-8.664z"/><path fill="#FFF" d="M13.617 10.434h.766v4.961h-.766zM9.83 12.259h.56v3.42h-.765v-3.207a.21.21 0 0 1 .205-.213zm7.78 0h.56a.21.21 0 0 1 .205.213v3.208h-.766v-3.421z"/><path d="M9.828 12.259h8.344a.2.2 0 0 1 .143.062c.039.04.06.094.06.15v.586h-8.75v-.586c0-.117.091-.212.203-.212z" fill="#FFF"/><rect fill="#FFF" x="10.664" y="7.982" width="6.672" height="2.737" rx=".15"/><rect fill="#FFF" x="12.578" y="14.711" width="2.844" height="2.395" rx=".15"/><path d="M8.586 14.868c0-.087.07-.157.153-.157h2.538c.084 0 .153.059.153.157v2.08c0 .087-.07.157-.153.157H8.739c-.085 0-.153-.059-.153-.157v-2.08z" fill="#FFF"/><rect fill="#FFF" x="16.57" y="14.711" width="2.844" height="2.395" rx=".15"/></g><path stroke="#616161" d="M367.24 723.619v72.86h-17.064v6.05"/><path fill="#616161" d="M353.303 799.786l-.586-.546-2.685 2.89-2.686-2.89-.586.546 3.272 3.518zm17-74.029l-.586.546-2.685-2.89-2.686 2.89-.586-.546 3.272-3.518z"/><path stroke="#616161" d="M387.76 723.619v72.927h17.064v5.983"/><path fill="#616161" d="M401.697 799.786l.586-.546 2.685 2.89 2.686-2.89.586.546-3.272 3.518zm-17-74.029l.586.546 2.685-2.89 2.686 2.89.586-.546-3.272-3.518z"/><g transform="translate(456 31)"><use stroke="#616161" mask="url(#w)" stroke-width="2" stroke-dasharray="2.5" xlink:href="#f"/><path d="M32.19 163c-1.21 0-2.19-.641-2.19-1.433V35.433c0-.792.98-1.433 2.19-1.433h179.62c1.21 0 2.19.641 2.19 1.433v126.134c0 .792-.98 1.433-2.19 1.433H32.19z" stroke="#E0E0E0" fill="#E1F5FE"/><text font-family="Roboto-Medium, Roboto" font-size="14" font-weight="400" letter-spacing="-.143" fill="#000"><tspan x="58" y="60">Kubernetes Engine</tspan></text><path d="M122 118.5v-11.011" stroke="#616161"/><path fill="#616161" d="M125.303 115.786l-.586-.546-2.685 2.89-2.686-2.89-.586.546 3.272 3.518zm0-6.029l-.585.546-2.686-2.89-2.685 2.89-.587-.545 3.272-3.519z"/><g transform="translate(37 71)"><use stroke="#E0E0E0" mask="url(#x)" stroke-width="2" fill="#FFF" xlink:href="#g"/><text font-family="Roboto-Regular, Roboto" font-size="12" fill="#212121"><tspan x="43.549" y="21">Jenkins Master</tspan></text></g><path fill="#FFF" d="M56 10h126v13H56z"/><text font-family="Roboto-Medium, Roboto" font-size="14" font-weight="400" letter-spacing="-.143" fill="#000" transform="translate(56 8)"><tspan x="1" y="13">Jenkins Environment</tspan></text></g><g fill="#4485F3"><path d="M461.467 282.316l2.44 1.404 2.438-1.404v-2.808l-2.439-1.404-2.439 1.404zm3.353 5.73l2.44 1.404 2.439-1.404v-2.808l-2.44-1.404-2.438 1.404zm-6.706.076l2.439 1.404 2.439-1.404v-2.808l-2.44-1.404-2.438 1.404z"/><path d="M458.418 278.617l-2.439 1.402v9.072l2.44 1.402v2.152l-4.269-2.455v-11.27l4.268-2.454zm10.976 0l2.439 1.402v9.072l-2.439 1.402v2.152l4.268-2.455v-11.27l-4.268-2.454z"/></g><path d="M508.778 80.88l-7.021-4.053a.8.8 0 0 0-.8 0l-7.022 4.054a.8.8 0 0 0-.4.693v8.108a.8.8 0 0 0 .4.693l7.022 4.054a.8.8 0 0 0 .8 0l7.021-4.054a.8.8 0 0 0 .4-.693v-8.108a.8.8 0 0 0-.4-.693zm-.963 8.025l-2.45-1.414v-3.726l-3.617 2.089v4.177l3.226-1.863 2.45 1.414-6.067 3.503-6.068-3.503 2.45-1.414 3.226 1.863v-4.177l-3.617-2.089v3.726l-2.45 1.414v-7.006l6.067-3.503v2.829l-3.226 1.863 3.618 2.088 3.617-2.088-3.226-1.863v-2.829l6.067 3.503v7.006z" fill="#4386F9"/><path d="M181.243 272.16l-7.021-4.053a.8.8 0 0 0-.8 0l-7.022 4.054a.8.8 0 0 0-.4.693v8.107a.8.8 0 0 0 .4.694l7.022 4.053a.8.8 0 0 0 .8 0l7.021-4.053a.8.8 0 0 0 .4-.694v-8.107a.8.8 0 0 0-.4-.693zm-.963 8.025l-2.45-1.414v-3.726l-3.617 2.089v4.177l3.226-1.863 2.45 1.414-6.067 3.503-6.068-3.503 2.45-1.414 3.227 1.863v-4.177l-3.618-2.089v3.726l-2.45 1.414v-7.006l6.068-3.503v2.829l-3.227 1.863 3.618 2.088 3.617-2.088-3.226-1.863v-2.829l6.067 3.503v7.006z" fill="#407CE0"/><g transform="translate(170 443)"><use stroke="#616161" mask="url(#y)" stroke-width="2" stroke-dasharray="2.5" xlink:href="#h"/><path d="M28.42 163c-2.442 0-4.42-.641-4.42-1.433V35.433C24 34.641 25.978 34 28.42 34h362.513c2.442 0 4.42.641 4.42 1.433v126.134c0 .792-1.978 1.433-4.42 1.433H28.42z" stroke="#E0E0E0" fill="#E1F5FE"/><g transform="translate(30 119)"><use stroke="#E0E0E0" mask="url(#z)" stroke-width="2" fill="#FFF" xlink:href="#i"/><text font-family="Roboto-Regular, Roboto" font-size="12" fill="#212121"><tspan x="40.613" y="21">Canary Frontend</tspan></text></g><g transform="translate(30 71)"><use stroke="#E0E0E0" mask="url(#A)" stroke-width="2" fill="#FFF" xlink:href="#j"/><text font-family="Roboto-Regular, Roboto" font-size="12" fill="#212121"><tspan x="41.354" y="21">Canary Backend</tspan></text></g><path d="M113 116.5v-11.011" stroke="#616161"/><path fill="#616161" d="M116.303 113.786l-.585-.546-2.686 2.89-2.685-2.89-.587.546 3.272 3.518zm0-6.029l-.585.546-2.686-2.89-2.685 2.89-.587-.545 3.272-3.519z"/><path d="M304 116.5v-11.011" stroke="#616161"/><path fill="#616161" d="M307.303 113.786l-.586-.546-2.685 2.89-2.686-2.89-.586.546 3.272 3.518zm0-6.029l-.586.546-2.685-2.89-2.686 2.89-.586-.545 3.272-3.519z"/><g transform="translate(219 71)"><use stroke="#E0E0E0" mask="url(#B)" stroke-width="2" fill="#FFF" xlink:href="#k"/><text font-family="Roboto-Regular, Roboto" font-size="12" fill="#212121"><tspan x="30.901" y="21">Production Backend</tspan></text></g><g transform="translate(219 119)"><use stroke="#E0E0E0" mask="url(#C)" stroke-width="2" fill="#FFF" xlink:href="#l"/><text font-family="Roboto-Regular, Roboto" font-size="12" fill="#212121"><tspan x="30.16" y="21">Production Frontend</tspan></text></g></g><path fill="#616161" d="M195.286 525.76l-.547.587 2.89 2.685-2.89 2.685.547.587 3.518-3.272zm368.232.24l.546.586-2.89 2.685 2.89 2.686-.546.586-3.518-3.272zm-367.972 50l-.546.586 2.89 2.685-2.89 2.686.546.586 3.518-3.272zm367.972 0l.546.586-2.89 2.685 2.89 2.686-.546.586-3.518-3.272z"/><text font-family="Roboto-Medium, Roboto" font-size="14" font-weight="400" letter-spacing="-.143" fill="#000" transform="translate(0 -4)"><tspan x="304" y="469">Production Environment</tspan></text><path d="M456.504 319.696H374.5M92.62 132.98v228.623h68.9m388.621-31.873v95.476h59.223v154.36h-48.386m-28.67-246.846v92.325H147.861v154.082h50.176m85.016 17.22v44.612h77.098v29.089M473.097 596v44.612H396v29.213" stroke="#616161"/><path d="M216.243 491.16l-7.021-4.053a.8.8 0 0 0-.8 0l-7.022 4.054a.8.8 0 0 0-.4.693v8.107a.8.8 0 0 0 .4.694l7.022 4.053a.8.8 0 0 0 .8 0l7.021-4.053a.8.8 0 0 0 .4-.694v-8.107a.8.8 0 0 0-.4-.693zm-.963 8.025l-2.45-1.414v-3.726l-3.617 2.089v4.177l3.226-1.863 2.45 1.414-6.067 3.503-6.068-3.503 2.45-1.414 3.227 1.863v-4.177l-3.618-2.089v3.726l-2.45 1.414v-7.006l6.068-3.503v2.829l-3.227 1.863 3.618 2.088 3.617-2.088-3.226-1.863v-2.829l6.067 3.503v7.006z" fill="#4486F6"/><path stroke="#616161" d="M578.13 159.41v86.813h-43.27v54.392"/><path d="M255.232 81.364l-2.675-4.633a.62.62 0 0 0-.537-.31h-5.35a.62.62 0 0 0-.537.31l-2.675 4.633a.62.62 0 0 0 0 .62l2.675 4.634a.62.62 0 0 0 .537.31h5.35a.62.62 0 0 0 .537-.31l2.675-4.634a.62.62 0 0 0 0-.62zm-5.887 2.588a2.277 2.277 0 1 1 0-4.555 2.277 2.277 0 0 1 0 4.555zm9.117-2.087l-1.906 3.303a.381.381 0 0 0 .33.572h1.142a.381.381 0 0 0 .33-.191l2.127-3.684a.382.382 0 0 0 0-.381l-2.127-3.684a.38.38 0 0 0-.33-.19h-1.142a.381.381 0 0 0-.33.571l1.906 3.303a.38.38 0 0 1 0 .381m-17.8 3.875h1.142a.381.381 0 0 0 .33-.572l-1.907-3.303a.38.38 0 0 1 0-.381l1.907-3.303a.381.381 0 0 0-.33-.572h-1.142a.38.38 0 0 0-.33.191l-2.127 3.684a.382.382 0 0 0 0 .381l2.127 3.684a.38.38 0 0 0 .33.19" fill="#4386F9"/><path fill="#E1F5FE" d="M221 488h106v16H221z"/><text font-family="Roboto-Medium, Roboto" font-size="14" font-weight="400" letter-spacing="-.143" fill="#000" transform="translate(221 488)"><tspan x="1" y="13">Kubernetes Engine</tspan></text><path fill="#E1F5FE" d="M480 277h106v16H480z"/><text font-family="Roboto-Medium, Roboto" font-size="14" font-weight="400" letter-spacing="-.143" fill="#000" transform="translate(480 277)"><tspan x="1" y="13">Container Registry</tspan></text><path fill="#FEF6E0" d="M325 777h106v16H325z"/><text font-family="Roboto-Medium, Roboto" font-size="14" font-weight="400" letter-spacing="-.143" fill="#000" transform="translate(325 777)"><tspan x="1" y="13">End Users</tspan></text><path fill="#616161" d="M363.543 667.546l-.586-.546-2.685 2.89-2.686-2.89-.586.546 3.272 3.518zm36 0l-.586-.546-2.685 2.89-2.686-2.89-.586.546 3.272 3.518zm77-69.028l-.586.546-2.685-2.89-2.686 2.89-.586-.546 3.272-3.518zm-190 0l-.586.546-2.685-2.89-2.686 2.89-.586-.546 3.272-3.518zM376.518 316.5l.546.586-2.89 2.685 2.89 2.686-.546.586-3.518-3.272z"/><g transform="translate(454 303)"><use stroke="#E0E0E0" mask="url(#D)" stroke-width="2" fill="#FFF" xlink:href="#m"/><text font-family="Roboto-Regular, Roboto" font-size="12" fill="#212121"><tspan x="44.533" y="21">Docker Images</tspan></text></g><g transform="translate(493 153)"><use stroke="#E0E0E0" mask="url(#E)" stroke-width="2" fill="#FFF" xlink:href="#n"/><text font-family="Roboto-Regular, Roboto" font-size="12" fill="#212121"><tspan x="46.584" y="21">Jenkins Agent</tspan></text></g><path d="M51.429 153c-.79 0-1.429-.443-1.429-.989V64.99c0-.546.64-.989 1.429-.989H168.57c.79 0 1.429.443 1.429.989v87.022c0 .546-.64.989-1.429.989H51.43z" stroke="#E0E0E0" fill="#E2F3EB"/><text font-family="Roboto-Medium, Roboto" font-size="14" font-weight="400" letter-spacing="-.143" fill="#000" transform="translate(50 64)"><tspan x="10" y="21">Developers</tspan></text><path d="M59.034 146.5c-.296 0-.538-.673-.538-1.5v-44c0-.827.242-1.5.538-1.5h45.924c.297 0 .538.673.538 1.5v44c0 .827-.241 1.5-.538 1.5H59.034zm54 0c-.296 0-.538-.673-.538-1.5v-44c0-.827.242-1.5.538-1.5h45.924c.297 0 .538.673.538 1.5v44c0 .827-.241 1.5-.538 1.5h-45.924z" stroke="#E0E0E0" fill="#FFF"/><path d="M93.5 131.25a2.758 2.758 0 0 0 2.75-2.75v-13.75A2.758 2.758 0 0 0 93.5 112h-22a2.758 2.758 0 0 0-2.75 2.75v13.75a2.758 2.758 0 0 0 2.75 2.75H66V134h33v-2.75h-5.5zm-22-16.5h22v13.75h-22v-13.75zm75 16.5a2.758 2.758 0 0 0 2.75-2.75v-13.75a2.758 2.758 0 0 0-2.75-2.75h-22a2.758 2.758 0 0 0-2.75 2.75v13.75a2.758 2.758 0 0 0 2.75 2.75H119V134h33v-2.75h-5.5zm-22-16.5h22v13.75h-22v-13.75z" fill="#616161"/><path d="M148.356 529.064h49.097M561 529h49.097" stroke="#616161"/><text font-family="Roboto-Regular, Roboto" font-size="10" fill="#9E9E9E" transform="translate(0 -4)"><tspan x="36" y="710">Developer commits code to development branch</tspan> <tspan x="36" y="731">Tests get kicked off and container image built</tspan> <tspan x="36" y="752">Container image uploaded to Container Registry</tspan> <tspan x="36" y="773">Developer environment deployed</tspan> <tspan x="36" y="794">Iterate &amp; test then commit to canary branch</tspan> <tspan x="36" y="815">Container image promoted to canary </tspan> <tspan x="36" y="836">Container image promoted to production</tspan></text><g transform="translate(18 723)"><ellipse fill="#03A9F4" cx="6" cy="6" rx="6" ry="6"/><text font-family="Roboto-Regular, Roboto" font-size="9" fill="#FFF"><tspan x="3.5" y="9">2</tspan></text></g><g transform="translate(572 219)"><circle fill="#03A9F4" cx="6" cy="6" r="6"/><text font-family="Roboto-Regular, Roboto" font-size="9" fill="#FFF"><tspan x="3.5" y="9">3</tspan></text></g><g transform="translate(18 744)"><ellipse fill="#03A9F4" cx="6" cy="6" rx="6" ry="6"/><text font-family="Roboto-Regular, Roboto" font-size="9" fill="#FFF"><tspan x="3.5" y="9">3</tspan></text></g><g transform="translate(404 314)"><circle fill="#03A9F4" cx="6" cy="6" r="6"/><text font-family="Roboto-Regular, Roboto" font-size="9" fill="#FFF"><tspan x="3.5" y="9">4</tspan></text></g><g transform="translate(18 766)"><ellipse fill="#03A9F4" cx="6" cy="6" rx="6" ry="6"/><text font-family="Roboto-Regular, Roboto" font-size="9" fill="#FFF"><tspan x="3.5" y="9">4</tspan></text></g><g transform="translate(87 247)"><circle fill="#03A9F4" cx="6" cy="6" r="6"/><text font-family="Roboto-Regular, Roboto" font-size="9" fill="#FFF"><tspan x="3.5" y="9">5</tspan></text></g><g transform="translate(18 786)"><ellipse fill="#03A9F4" cx="6" cy="6" rx="6" ry="6"/><text font-family="Roboto-Regular, Roboto" font-size="9" fill="#FFF"><tspan x="3.5" y="9">5</tspan></text></g><g transform="translate(544 373)"><circle fill="#03A9F4" cx="6" cy="6" r="6"/><text font-family="Roboto-Regular, Roboto" font-size="9" fill="#FFF"><tspan x="3.5" y="9">7</tspan></text></g><g transform="translate(526 373)"><circle fill="#03A9F4" cx="6" cy="6" r="6"/><text font-family="Roboto-Regular, Roboto" font-size="9" fill="#FFF"><tspan x="3.5" y="9">6</tspan></text></g><g transform="translate(18 807)"><ellipse fill="#03A9F4" cx="6" cy="6" rx="6" ry="6"/><text font-family="Roboto-Regular, Roboto" font-size="9" fill="#FFF"><tspan x="3.5" y="9">6</tspan></text></g><g transform="translate(18 828)"><ellipse fill="#03A9F4" cx="6" cy="6" rx="6" ry="6"/><text font-family="Roboto-Regular, Roboto" font-size="9" fill="#FFF"><tspan x="3.5" y="9">7</tspan></text></g><g transform="translate(193 111)"><circle fill="#03A9F4" cx="6" cy="6" r="6"/><text font-family="Roboto-Regular, Roboto" font-size="9" fill="#FFF"><tspan x="3.5" y="9">1</tspan></text></g><g transform="translate(425 111)"><circle fill="#03A9F4" cx="6" cy="6" r="6"/><text font-family="Roboto-Regular, Roboto" font-size="9" fill="#FFF"><tspan x="3.5" y="9">2</tspan></text></g><g transform="translate(18 702)"><ellipse fill="#03A9F4" cx="6" cy="6" rx="6" ry="6"/><text font-family="Roboto-Regular, Roboto" font-size="9" fill="#FFF"><tspan x="3.5" y="9">1</tspan></text></g></g></svg>